<?xml version="1.0" encoding="UTF-8" standalone="no"?>
<!DOCTYPE svg PUBLIC "-//W3C//DTD SVG 1.1//EN"
 "http://www.w3.org/Graphics/SVG/1.1/DTD/svg11.dtd">
<!-- Generated by graphviz version 2.38.0 (20140413.2041)
 -->
<!-- Title: G Pages: 1 -->
<svg width="371pt" height="95pt"
 viewBox="0.00 0.00 371.32 95.00" xmlns="http://www.w3.org/2000/svg" xmlns:xlink="http://www.w3.org/1999/xlink">
<g id="graph0" class="graph" transform="scale(1 1) rotate(0) translate(4 91)">
<title>G</title>
<polygon fill="white" stroke="none" points="-4,4 -4,-91 367.315,-91 367.315,4 -4,4"/>
<g id="clust1" class="cluster"><title>cluster_Global</title>
<path fill="none" stroke="gray" d="M203.294,-8C203.294,-8 343.315,-8 343.315,-8 349.315,-8 355.315,-14 355.315,-20 355.315,-20 355.315,-67 355.315,-67 355.315,-73 349.315,-79 343.315,-79 343.315,-79 203.294,-79 203.294,-79 197.294,-79 191.294,-73 191.294,-67 191.294,-67 191.294,-20 191.294,-20 191.294,-14 197.294,-8 203.294,-8"/>
<text text-anchor="middle" x="273.305" y="-66.2" font-family="Times,serif" font-size="11.00" fill="gray">Global</text>
</g>
<!-- \\adpapiUserinfoHelper -->
<g id="node1" class="node"><title>\\adpapiUserinfoHelper</title>
<polygon fill="none" stroke="black" points="347.326,-52 199.283,-52 199.283,-16 347.326,-16 347.326,-52"/>
<text text-anchor="middle" x="273.305" y="-30.7" font-family="Courier,monospace" font-size="11.00">adpapiUserinfoHelper</text>
</g>
<!-- \\adpapiProduct -->
<g id="node2" class="node"><title>\\adpapiProduct</title>
<ellipse fill="none" stroke="black" cx="63.6469" cy="-34" rx="63.7942" ry="18"/>
<text text-anchor="middle" x="63.6469" y="-29.8" font-family="Times,serif" font-size="14.00" fill="gray">\adpapiProduct</text>
</g>
<!-- \\adpapiUserinfoHelper&#45;&gt;\\adpapiProduct -->
<g id="edge1" class="edge"><title>\\adpapiUserinfoHelper&#45;&gt;\\adpapiProduct</title>
<path fill="none" stroke="black" d="M199.092,-34C179.205,-34 157.672,-34 137.789,-34"/>
<polygon fill="none" stroke="black" points="137.559,-30.5001 127.559,-34 137.559,-37.5001 137.559,-30.5001"/>
</g>
</g>
</svg>
